<mxfile host="app.diagrams.net" agent="Mozilla/5.0 (Windows NT 10.0; Win64; x64) AppleWebKit/537.36 (KHTML, like Gecko) Chrome/135.0.0.0 Safari/537.36 OPR/120.0.0.0 (Edition Yx GX)" version="28.2.1">
  <diagram name="Страница — 1" id="kMGAEVgWLZM-bYfMIyvv">
    <mxGraphModel dx="1001" dy="547" grid="1" gridSize="10" guides="1" tooltips="1" connect="1" arrows="1" fold="1" page="1" pageScale="1" pageWidth="827" pageHeight="1169" math="0" shadow="0">
      <root>
        <mxCell id="0" />
        <mxCell id="1" parent="0" />
        <mxCell id="i2NHLoArj4L2e_kZP6KS-18" value="" style="rounded=0;whiteSpace=wrap;html=1;fillColor=light-dark(#FFFFFF,#FFFFFF);" vertex="1" parent="1">
          <mxGeometry x="20" y="80" width="820" height="480" as="geometry" />
        </mxCell>
        <mxCell id="i2NHLoArj4L2e_kZP6KS-49" value="" style="group" vertex="1" connectable="0" parent="1">
          <mxGeometry x="80" y="270" width="70" height="100" as="geometry" />
        </mxCell>
        <mxCell id="i2NHLoArj4L2e_kZP6KS-1" value="" style="outlineConnect=0;dashed=0;verticalLabelPosition=bottom;verticalAlign=top;align=center;html=1;shape=mxgraph.aws3.corporate_data_center;fillColor=#7D7C7C;gradientColor=none;" vertex="1" parent="i2NHLoArj4L2e_kZP6KS-49">
          <mxGeometry width="70" height="90" as="geometry" />
        </mxCell>
        <mxCell id="i2NHLoArj4L2e_kZP6KS-31" value="&lt;span style=&quot;font-size: 14px;&quot;&gt;R1&lt;/span&gt;" style="text;html=1;align=center;verticalAlign=middle;whiteSpace=wrap;rounded=0;" vertex="1" parent="i2NHLoArj4L2e_kZP6KS-49">
          <mxGeometry y="40" width="70" height="60" as="geometry" />
        </mxCell>
        <mxCell id="i2NHLoArj4L2e_kZP6KS-50" value="" style="group" vertex="1" connectable="0" parent="1">
          <mxGeometry x="379" y="100" width="70" height="120" as="geometry" />
        </mxCell>
        <mxCell id="i2NHLoArj4L2e_kZP6KS-51" value="" style="outlineConnect=0;dashed=0;verticalLabelPosition=bottom;verticalAlign=top;align=center;html=1;shape=mxgraph.aws3.corporate_data_center;fillColor=#7D7C7C;gradientColor=none;" vertex="1" parent="i2NHLoArj4L2e_kZP6KS-50">
          <mxGeometry width="70" height="90" as="geometry" />
        </mxCell>
        <mxCell id="i2NHLoArj4L2e_kZP6KS-52" value="&lt;span style=&quot;font-size: 14px;&quot;&gt;R2&lt;/span&gt;" style="text;html=1;align=center;verticalAlign=middle;whiteSpace=wrap;rounded=0;" vertex="1" parent="i2NHLoArj4L2e_kZP6KS-50">
          <mxGeometry y="40" width="70" height="60" as="geometry" />
        </mxCell>
        <mxCell id="i2NHLoArj4L2e_kZP6KS-53" value="" style="group" vertex="1" connectable="0" parent="1">
          <mxGeometry x="379" y="270" width="70" height="120" as="geometry" />
        </mxCell>
        <mxCell id="i2NHLoArj4L2e_kZP6KS-54" value="" style="outlineConnect=0;dashed=0;verticalLabelPosition=bottom;verticalAlign=top;align=center;html=1;shape=mxgraph.aws3.corporate_data_center;fillColor=#7D7C7C;gradientColor=none;" vertex="1" parent="i2NHLoArj4L2e_kZP6KS-53">
          <mxGeometry width="70" height="90" as="geometry" />
        </mxCell>
        <mxCell id="i2NHLoArj4L2e_kZP6KS-55" value="&lt;span style=&quot;font-size: 14px;&quot;&gt;R3&lt;/span&gt;" style="text;html=1;align=center;verticalAlign=middle;whiteSpace=wrap;rounded=0;" vertex="1" parent="i2NHLoArj4L2e_kZP6KS-53">
          <mxGeometry y="40" width="70" height="60" as="geometry" />
        </mxCell>
        <mxCell id="i2NHLoArj4L2e_kZP6KS-93" value="eth3" style="text;html=1;align=center;verticalAlign=middle;resizable=0;points=[];autosize=1;strokeColor=light-dark(#000000,#000000);fillColor=none;perimeterSpacing=1;dashed=1;dashPattern=8 8;fontColor=light-dark(#000000,#000000);" vertex="1" parent="i2NHLoArj4L2e_kZP6KS-53">
          <mxGeometry x="-15" y="90" width="50" height="30" as="geometry" />
        </mxCell>
        <mxCell id="i2NHLoArj4L2e_kZP6KS-56" value="" style="group" vertex="1" connectable="0" parent="1">
          <mxGeometry x="379" y="450" width="70" height="100" as="geometry" />
        </mxCell>
        <mxCell id="i2NHLoArj4L2e_kZP6KS-57" value="" style="outlineConnect=0;dashed=0;verticalLabelPosition=bottom;verticalAlign=top;align=center;html=1;shape=mxgraph.aws3.corporate_data_center;fillColor=#7D7C7C;gradientColor=none;" vertex="1" parent="i2NHLoArj4L2e_kZP6KS-56">
          <mxGeometry width="70" height="90" as="geometry" />
        </mxCell>
        <mxCell id="i2NHLoArj4L2e_kZP6KS-58" value="&lt;span style=&quot;font-size: 14px;&quot;&gt;R4&lt;/span&gt;" style="text;html=1;align=center;verticalAlign=middle;whiteSpace=wrap;rounded=0;" vertex="1" parent="i2NHLoArj4L2e_kZP6KS-56">
          <mxGeometry y="40" width="70" height="60" as="geometry" />
        </mxCell>
        <mxCell id="i2NHLoArj4L2e_kZP6KS-59" value="" style="group" vertex="1" connectable="0" parent="1">
          <mxGeometry x="680" y="270" width="70" height="100" as="geometry" />
        </mxCell>
        <mxCell id="i2NHLoArj4L2e_kZP6KS-60" value="" style="outlineConnect=0;dashed=0;verticalLabelPosition=bottom;verticalAlign=top;align=center;html=1;shape=mxgraph.aws3.corporate_data_center;fillColor=#7D7C7C;gradientColor=none;" vertex="1" parent="i2NHLoArj4L2e_kZP6KS-59">
          <mxGeometry width="70" height="90" as="geometry" />
        </mxCell>
        <mxCell id="i2NHLoArj4L2e_kZP6KS-61" value="&lt;span style=&quot;font-size: 14px;&quot;&gt;R5&lt;/span&gt;" style="text;html=1;align=center;verticalAlign=middle;whiteSpace=wrap;rounded=0;" vertex="1" parent="i2NHLoArj4L2e_kZP6KS-59">
          <mxGeometry y="40" width="70" height="60" as="geometry" />
        </mxCell>
        <mxCell id="i2NHLoArj4L2e_kZP6KS-64" value="" style="shape=wire;edgeStyle=orthogonalEdgeStyle;orthogonalLoop=1;jettySize=auto;html=1;sourcePerimeterSpacing=0;targetPerimeterSpacing=0;endArrow=none;curved=0;rounded=0;strokeColor=#009900;fillColor=#ffff00;fixDash=1;startSize=6;endSize=6;exitX=1;exitY=0;exitDx=0;exitDy=0;entryX=0;entryY=0;entryDx=0;entryDy=0;strokeWidth=5;" edge="1" parent="1" source="i2NHLoArj4L2e_kZP6KS-31" target="i2NHLoArj4L2e_kZP6KS-55">
          <mxGeometry width="100" relative="1" as="geometry">
            <mxPoint x="80" y="210" as="sourcePoint" />
            <mxPoint x="350" y="200" as="targetPoint" />
            <Array as="points">
              <mxPoint x="370" y="310" />
              <mxPoint x="370" y="310" />
            </Array>
          </mxGeometry>
        </mxCell>
        <mxCell id="i2NHLoArj4L2e_kZP6KS-66" value="" style="shape=wire;edgeStyle=orthogonalEdgeStyle;orthogonalLoop=1;jettySize=auto;html=1;sourcePerimeterSpacing=0;targetPerimeterSpacing=0;endArrow=none;curved=0;rounded=0;strokeColor=#009900;fillColor=#ffff00;fixDash=1;startSize=6;endSize=6;exitX=0.5;exitY=0;exitDx=0;exitDy=0;entryX=0;entryY=0;entryDx=0;entryDy=0;strokeWidth=5;exitPerimeter=0;" edge="1" parent="1" source="i2NHLoArj4L2e_kZP6KS-1">
          <mxGeometry width="100" relative="1" as="geometry">
            <mxPoint x="150" y="140" as="sourcePoint" />
            <mxPoint x="379" y="140" as="targetPoint" />
            <Array as="points">
              <mxPoint x="115" y="140" />
            </Array>
          </mxGeometry>
        </mxCell>
        <mxCell id="i2NHLoArj4L2e_kZP6KS-68" value="" style="shape=wire;edgeStyle=orthogonalEdgeStyle;orthogonalLoop=1;jettySize=auto;html=1;sourcePerimeterSpacing=0;targetPerimeterSpacing=0;endArrow=none;curved=0;rounded=0;strokeColor=#009900;fillColor=#ffff00;fixDash=1;startSize=6;endSize=6;entryX=0.5;entryY=0;entryDx=0;entryDy=0;strokeWidth=5;entryPerimeter=0;exitX=0.5;exitY=0.833;exitDx=0;exitDy=0;exitPerimeter=0;" edge="1" parent="1" source="i2NHLoArj4L2e_kZP6KS-55" target="i2NHLoArj4L2e_kZP6KS-57">
          <mxGeometry width="100" relative="1" as="geometry">
            <mxPoint x="410" y="360" as="sourcePoint" />
            <mxPoint x="528" y="400" as="targetPoint" />
            <Array as="points" />
          </mxGeometry>
        </mxCell>
        <mxCell id="i2NHLoArj4L2e_kZP6KS-69" value="" style="shape=wire;edgeStyle=orthogonalEdgeStyle;orthogonalLoop=1;jettySize=auto;html=1;sourcePerimeterSpacing=0;targetPerimeterSpacing=0;endArrow=none;curved=0;rounded=0;strokeColor=#009900;fillColor=#ffff00;fixDash=1;startSize=6;endSize=6;entryX=0.5;entryY=0;entryDx=0;entryDy=0;strokeWidth=5;entryPerimeter=0;" edge="1" parent="1">
          <mxGeometry width="100" relative="1" as="geometry">
            <mxPoint x="414" y="190" as="sourcePoint" />
            <mxPoint x="413.5" y="270" as="targetPoint" />
            <Array as="points" />
          </mxGeometry>
        </mxCell>
        <mxCell id="i2NHLoArj4L2e_kZP6KS-70" value="" style="shape=wire;edgeStyle=orthogonalEdgeStyle;orthogonalLoop=1;jettySize=auto;html=1;sourcePerimeterSpacing=0;targetPerimeterSpacing=0;endArrow=none;curved=0;rounded=0;strokeColor=#009900;fillColor=#ffff00;fixDash=1;startSize=6;endSize=6;entryX=0.75;entryY=0;entryDx=0;entryDy=0;strokeWidth=5;entryPerimeter=0;" edge="1" parent="1" target="i2NHLoArj4L2e_kZP6KS-60">
          <mxGeometry width="100" relative="1" as="geometry">
            <mxPoint x="450" y="120" as="sourcePoint" />
            <mxPoint x="678" y="140" as="targetPoint" />
            <Array as="points">
              <mxPoint x="449" y="120" />
              <mxPoint x="733" y="120" />
            </Array>
          </mxGeometry>
        </mxCell>
        <mxCell id="i2NHLoArj4L2e_kZP6KS-71" value="" style="shape=wire;edgeStyle=orthogonalEdgeStyle;orthogonalLoop=1;jettySize=auto;html=1;sourcePerimeterSpacing=0;targetPerimeterSpacing=0;endArrow=none;curved=0;rounded=0;strokeColor=#009900;fillColor=#ffff00;fixDash=1;startSize=6;endSize=6;exitX=1;exitY=0;exitDx=0;exitDy=0;entryX=0.25;entryY=0;entryDx=0;entryDy=0;strokeWidth=5;entryPerimeter=0;" edge="1" parent="1" source="i2NHLoArj4L2e_kZP6KS-52" target="i2NHLoArj4L2e_kZP6KS-60">
          <mxGeometry width="100" relative="1" as="geometry">
            <mxPoint x="449" y="160" as="sourcePoint" />
            <mxPoint x="678" y="160" as="targetPoint" />
            <Array as="points">
              <mxPoint x="698" y="140" />
            </Array>
          </mxGeometry>
        </mxCell>
        <mxCell id="i2NHLoArj4L2e_kZP6KS-72" value="" style="shape=wire;edgeStyle=orthogonalEdgeStyle;orthogonalLoop=1;jettySize=auto;html=1;sourcePerimeterSpacing=0;targetPerimeterSpacing=0;endArrow=none;curved=0;rounded=0;strokeColor=#009900;fillColor=#ffff00;fixDash=1;startSize=6;endSize=6;entryX=0;entryY=0;entryDx=0;entryDy=0;strokeWidth=5;" edge="1" parent="1">
          <mxGeometry width="100" relative="1" as="geometry">
            <mxPoint x="115" y="360" as="sourcePoint" />
            <mxPoint x="379" y="499.5" as="targetPoint" />
            <Array as="points">
              <mxPoint x="115" y="500" />
            </Array>
          </mxGeometry>
        </mxCell>
        <mxCell id="i2NHLoArj4L2e_kZP6KS-73" value="" style="shape=wire;edgeStyle=orthogonalEdgeStyle;orthogonalLoop=1;jettySize=auto;html=1;sourcePerimeterSpacing=0;targetPerimeterSpacing=0;endArrow=none;curved=0;rounded=0;strokeColor=#009900;fillColor=#ffff00;fixDash=1;startSize=6;endSize=6;exitX=1;exitY=0;exitDx=0;exitDy=0;strokeWidth=5;" edge="1" parent="1">
          <mxGeometry width="100" relative="1" as="geometry">
            <mxPoint x="449" y="499.5" as="sourcePoint" />
            <mxPoint x="715" y="360" as="targetPoint" />
            <Array as="points">
              <mxPoint x="715" y="500" />
            </Array>
          </mxGeometry>
        </mxCell>
        <mxCell id="i2NHLoArj4L2e_kZP6KS-84" value="eth1" style="text;html=1;align=center;verticalAlign=middle;resizable=0;points=[];autosize=1;strokeColor=light-dark(#000000,#000000);fillColor=none;perimeterSpacing=1;dashed=1;dashPattern=8 8;fontColor=light-dark(#000000,#000000);" vertex="1" parent="1">
          <mxGeometry x="150" y="310" width="50" height="30" as="geometry" />
        </mxCell>
        <mxCell id="i2NHLoArj4L2e_kZP6KS-85" value="eth1" style="text;html=1;align=center;verticalAlign=middle;resizable=0;points=[];autosize=1;strokeColor=light-dark(#000000,#000000);fillColor=none;perimeterSpacing=1;dashed=1;dashPattern=8 8;fontColor=light-dark(#000000,#000000);" vertex="1" parent="1">
          <mxGeometry x="329" y="310" width="50" height="30" as="geometry" />
        </mxCell>
        <mxCell id="i2NHLoArj4L2e_kZP6KS-86" value="eth2" style="text;html=1;align=center;verticalAlign=middle;resizable=0;points=[];autosize=1;strokeColor=light-dark(#000000,#000000);fillColor=none;perimeterSpacing=1;dashed=1;dashPattern=8 8;fontColor=light-dark(#000000,#000000);" vertex="1" parent="1">
          <mxGeometry x="60" y="360" width="50" height="30" as="geometry" />
        </mxCell>
        <mxCell id="i2NHLoArj4L2e_kZP6KS-87" value="eth2" style="text;html=1;align=center;verticalAlign=middle;resizable=0;points=[];autosize=1;strokeColor=light-dark(#000000,#000000);fillColor=none;perimeterSpacing=1;dashed=1;dashPattern=8 8;fontColor=light-dark(#000000,#000000);" vertex="1" parent="1">
          <mxGeometry x="329" y="500" width="50" height="30" as="geometry" />
        </mxCell>
        <mxCell id="i2NHLoArj4L2e_kZP6KS-88" value="eth2" style="text;html=1;align=center;verticalAlign=middle;resizable=0;points=[];autosize=1;strokeColor=light-dark(#000000,#000000);fillColor=none;perimeterSpacing=1;dashed=1;dashPattern=8 8;fontColor=light-dark(#000000,#000000);" vertex="1" parent="1">
          <mxGeometry x="364" y="240" width="50" height="30" as="geometry" />
        </mxCell>
        <mxCell id="i2NHLoArj4L2e_kZP6KS-89" value="eth2" style="text;html=1;align=center;verticalAlign=middle;resizable=0;points=[];autosize=1;strokeColor=light-dark(#000000,#000000);fillColor=none;perimeterSpacing=1;dashed=1;dashPattern=8 8;fontColor=light-dark(#000000,#000000);" vertex="1" parent="1">
          <mxGeometry x="364" y="190" width="50" height="30" as="geometry" />
        </mxCell>
        <mxCell id="i2NHLoArj4L2e_kZP6KS-90" value="eth3" style="text;html=1;align=center;verticalAlign=middle;resizable=0;points=[];autosize=1;strokeColor=light-dark(#000000,#000000);fillColor=none;perimeterSpacing=1;dashed=1;dashPattern=8 8;fontColor=light-dark(#000000,#000000);" vertex="1" parent="1">
          <mxGeometry x="60" y="240" width="50" height="30" as="geometry" />
        </mxCell>
        <mxCell id="i2NHLoArj4L2e_kZP6KS-91" value="eth3" style="text;html=1;align=center;verticalAlign=middle;resizable=0;points=[];autosize=1;strokeColor=light-dark(#000000,#000000);fillColor=none;perimeterSpacing=1;dashed=1;dashPattern=8 8;fontColor=light-dark(#000000,#000000);" vertex="1" parent="1">
          <mxGeometry x="329" y="110" width="50" height="30" as="geometry" />
        </mxCell>
        <mxCell id="i2NHLoArj4L2e_kZP6KS-92" value="eth3" style="text;html=1;align=center;verticalAlign=middle;resizable=0;points=[];autosize=1;strokeColor=light-dark(#000000,#000000);fillColor=none;perimeterSpacing=1;dashed=1;dashPattern=8 8;fontColor=light-dark(#000000,#000000);" vertex="1" parent="1">
          <mxGeometry x="364" y="420" width="50" height="30" as="geometry" />
        </mxCell>
        <mxCell id="i2NHLoArj4L2e_kZP6KS-94" value="eth1" style="text;html=1;align=center;verticalAlign=middle;resizable=0;points=[];autosize=1;strokeColor=light-dark(#000000,#000000);fillColor=none;perimeterSpacing=1;dashed=1;dashPattern=8 8;fontColor=light-dark(#000000,#000000);" vertex="1" parent="1">
          <mxGeometry x="449" y="470" width="50" height="30" as="geometry" />
        </mxCell>
        <mxCell id="i2NHLoArj4L2e_kZP6KS-95" value="eth1" style="text;html=1;align=center;verticalAlign=middle;resizable=0;points=[];autosize=1;strokeColor=light-dark(#000000,#000000);fillColor=none;perimeterSpacing=1;dashed=1;dashPattern=8 8;fontColor=light-dark(#000000,#000000);" vertex="1" parent="1">
          <mxGeometry x="449" y="150" width="50" height="30" as="geometry" />
        </mxCell>
        <mxCell id="i2NHLoArj4L2e_kZP6KS-96" value="eth0" style="text;html=1;align=center;verticalAlign=middle;resizable=0;points=[];autosize=1;strokeColor=light-dark(#000000,#000000);fillColor=none;perimeterSpacing=1;dashed=1;dashPattern=8 8;fontColor=light-dark(#000000,#000000);" vertex="1" parent="1">
          <mxGeometry x="449" y="90" width="50" height="30" as="geometry" />
        </mxCell>
        <mxCell id="i2NHLoArj4L2e_kZP6KS-97" value="eth1" style="text;html=1;align=center;verticalAlign=middle;resizable=0;points=[];autosize=1;strokeColor=light-dark(#000000,#000000);fillColor=none;perimeterSpacing=1;dashed=1;dashPattern=8 8;fontColor=light-dark(#000000,#000000);" vertex="1" parent="1">
          <mxGeometry x="660" y="360" width="50" height="30" as="geometry" />
        </mxCell>
        <mxCell id="i2NHLoArj4L2e_kZP6KS-98" value="eth3" style="text;html=1;align=center;verticalAlign=middle;resizable=0;points=[];autosize=1;strokeColor=light-dark(#000000,#000000);fillColor=none;perimeterSpacing=1;dashed=1;dashPattern=8 8;fontColor=light-dark(#000000,#000000);" vertex="1" parent="1">
          <mxGeometry x="740" y="240" width="50" height="30" as="geometry" />
        </mxCell>
        <mxCell id="i2NHLoArj4L2e_kZP6KS-100" value="eth2" style="text;html=1;align=center;verticalAlign=middle;resizable=0;points=[];autosize=1;strokeColor=light-dark(#000000,#000000);fillColor=none;perimeterSpacing=1;dashed=1;dashPattern=8 8;fontColor=light-dark(#000000,#000000);" vertex="1" parent="1">
          <mxGeometry x="640" y="240" width="50" height="30" as="geometry" />
        </mxCell>
      </root>
    </mxGraphModel>
  </diagram>
</mxfile>
